<mxfile host="app.diagrams.net" modified="2023-08-22T02:10:42.693Z" agent="Mozilla/5.0 (X11; Ubuntu; Linux x86_64; rv:108.0) Gecko/20100101 Firefox/108.0" version="21.6.8" etag="kMUVxM-4g5mv47HH5jXB" type="github">
  <diagram name="Page-1" id="nh9ldQ80nyOfWM0NjGZS">
    <mxGraphModel>
      <root>
        <mxCell id="0" />
        <mxCell id="1" parent="0" />
      </root>
    </mxGraphModel>
  </diagram>
</mxfile>
